# xmcd CD database file
# Copyright (C) 1993-1998 Ti Kan
# 
# Track frame offsets:
#     183
#     9308
#     25760
#     38608
#     50128
#     59708
#     74333
#     84915
#     94065
#     101630
#     114608
#     125258
#     137658
#     151285
#     165233
#     172513
#     184780
#     198685
#     215953
#     236458
#     253438
# 
# Disc length: 3574 seconds
# 
# Revision: 1
# Processed by: cddbd v1.4b41PL1 Copyright (c) Steve Scherf et al.
# Submitted via: DiscPlay 4.0.4
# 
DISCID=200df415
DTITLE=Plavci - 21 X 1973 - 1980
DYEAR=1900
DGENRE=
TTITLE0=Jarn  v let
TTITLE1=Vyso ina
TTITLE2=Kingston town
TTITLE3=Orchidej
TTITLE4=Divnej sen
TTITLE5=Duby
TTITLE6=Klek n 
TTITLE7=Ver e psan  na v no
TTITLE8=Jako ty
TTITLE9=Chv li
TTITLE10=Komplexn  v zkum
TTITLE11=Trpasli   svatba
TTITLE12=Dva na most 
TTITLE13=Romance 16. l ta
TTITLE14=Ryba en 
TTITLE15=Jestli se chce  st t mou  enou
TTITLE16=L ska kon  
TTITLE17=Krajina obl ch kopc 
TTITLE18=Kopej hrob m j
TTITLE19=Pi  pi 
TTITLE20=De tiv  n lada
EXTD=
EXTT0=
EXTT1=
EXTT2=
EXTT3=
EXTT4=
EXTT5=
EXTT6=
EXTT7=
EXTT8=
EXTT9=
EXTT10=
EXTT11=
EXTT12=
EXTT13=
EXTT14=
EXTT15=
EXTT16=
EXTT17=
EXTT18=
EXTT19=
EXTT20=
PLAYORDER=
